<?xml version="1.0" encoding="UTF-8"?>
<svg id="Layer_1" xmlns="http://www.w3.org/2000/svg" width="1090.38" height="1009.3" viewBox="0 0 1090.38 1009.3"><path d="M679.89,268.4c6.5-11.31,14.1-23.15,22.96-35.23,11.68-15.92,23.82-29.86,35.8-42.03,22.52-22.86,61.42-11.74,68.67,19.51,4.16,17.89,7.31,37.75,8.58,59.35,1.4,24.01.19,45.64-2.11,64.21,14.21,36.41,83.47,215.11,124.11,370.25,9.9,37.8,24.23,97.58-5.42,150.25-9.57,17-22.12,30.31-37.49,42.59-94.19,75.23-230.89,86.55-315.89,87.87-84.45,1.31-217.62,4.48-335.62-80.93-14.9-10.78-27.07-22.69-36.63-38.04-29.76-47.78-18.85-104.21-11.27-139.48,31.35-145.92,88.33-314.96,100.03-349.4-6.54-17.53-12.71-38.3-16.91-61.99-3.77-21.3-5.29-41.35-5.4-59.72-.18-32.09,35.09-51.91,62.28-34.87,14.47,9.06,29.51,19.82,44.55,32.6,17.42,14.8,31.85,29.76,43.67,43.67,15.28-8.41,32.16-16.13,50.72-22.54,113.48-39.19,220.65-5.28,271.91,15.5" fill="#90a4ae" stroke="#263238" stroke-linecap="round" stroke-linejoin="round" stroke-width="20"/><path d="M198.06,849.23l-140.81-37.25c-26.22-6.94-41.84-33.8-34.92-60.03,7.14-27.42,36.59-43.16,63.38-33.89l53.11,18.17,43.7,14.97,7.87,2.69c-4.45,28.42-6.02,62.98,7.67,95.34Z" fill="#90a4ae" stroke="#263238" stroke-linecap="round" stroke-linejoin="round" stroke-width="20"/><path d="M119.65,729.87c-17.93,3.45-33.44,16.8-38.35,35.71" fill="none" stroke="#263238" stroke-linecap="round" stroke-linejoin="round" stroke-width="20"/><path d="M129.47,779.45c4.5-17.32,17.89-29.96,33.89-34.62" fill="none" stroke="#263238" stroke-linecap="round" stroke-linejoin="round" stroke-width="20"/><path d="M484.86,932.39c-2.02-4.39-18.08-40.77.79-74.36,19.8-35.25,63.75-41.98,92.94-36.34,6.97,1.35,54.37,10.52,64.77,51.1,6.28,24.5-3.15,51.72-24.07,70.69" fill="none" stroke="#263238" stroke-linecap="round" stroke-linejoin="round" stroke-width="20"/><path d="M786.29,903.14c-3.55-2.48-32.43-23.3-33.08-57.79-.68-36.2,30.22-61.31,55.32-70.18,5.99-2.12,46.76-16.51,73.18,10.12,15.95,16.08,21,41.38,13.44,65.5" fill="#90a4ae" stroke="#263238" stroke-linecap="round" stroke-linejoin="round" stroke-width="20"/><path d="M595.69,488.65c1.64.95,8.97,5.09,18.93,5.67,4.16.25,8.78-.12,13.63-1.6,10.5-3.2,17.29-10.1,21.5-16.39,2.72-4.07,4.37-7.88,5.24-10.26.5-1.34.75-2.23.82-2.47" fill="none" stroke="#263238" stroke-linecap="round" stroke-linejoin="round" stroke-width="20"/><path d="M708.34,474.1c-1.71,1.93-11.5,12.65-27.42,13.9-.73.06-1.48.1-2.25.12-13.27.28-23.07-6.29-28.93-11.79" fill="none" stroke="#263238" stroke-linecap="round" stroke-linejoin="round" stroke-width="20"/><circle cx="518.51" cy="487.02" r="23.48" fill="#263238"/><circle cx="758.64" cy="460" r="23.48" fill="#263238"/><path d="M683.04,499.91c0,19.02-15.42,34.44-34.44,34.44s-34.44-15.42-34.44-34.44c0-1.91.16-3.77.46-5.6,4.16.25,8.78-.12,13.63-1.6,10.5-3.2,17.29-10.1,21.5-16.39,5.86,5.5,15.66,12.06,28.93,11.79.76-.02,1.52-.05,2.25-.12,1.37,3.71,2.12,7.73,2.12,11.91Z" fill="#ff8080" stroke="#263238" stroke-linecap="round" stroke-linejoin="round" stroke-width="20"/><path d="M970.31,867.61c-107.66,51.55-218.26,75.12-322.28,68.68,5.49-139.7,11.89-302.57,19.44-494.88,129,41.7,263.92,35.57,394.45-14.1-34.93,167.89-65.18,313.24-91.62,440.31Z" fill="#fff" stroke="#263238" stroke-linecap="round" stroke-linejoin="round" stroke-width="20"/><path d="M820.53,506.11c-2.03,17.82-4.02,35.36-5.98,52.63-.13,1.28-.78,1.94-1.94,1.98-4,.14-7.99.24-11.98.3-.8.03-1.34-.4-1.61-1.27-2.76-8.78-5.53-17.69-8.32-26.75-.86,8.39-1.71,16.72-2.55,24.99-.13,1.16-.81,1.77-2.02,1.83-5.57.21-8.68.23-9.34.19-2.81-.21-4.14-1.11-4.01-2.67,1.53-17.74,3.09-35.76,4.67-54.08.16-1.9,2.08-2.64,5.74-2.28,1.13.11,4.17.62,9.11,1.45.76.12,1.27.58,1.51,1.38,2.76,9.23,5.51,18.33,8.24,27.28.84-8.49,1.68-17.04,2.53-25.66.18-1.82,2.03-2.62,5.56-2.45,1.3.06,4.2.39,8.72.9,1.28.13,1.84.87,1.67,2.24Z" fill="#78909c"/><path d="M855.87,556.16c-.17,1.36-.85,2.08-2.05,2.15-10.75.66-21.5,1.01-32.24,1.06-1.23,0-1.76-.68-1.61-2.06,1.88-17.42,3.78-35.11,5.72-53.09.16-1.48.87-2.2,2.11-2.17,10.99.21,21.99.1,32.99-.32,1.22-.05,1.74.65,1.56,2.11-.44,3.57-.89,7.14-1.33,10.69-.18,1.41-.87,2.15-2.1,2.2-6.04.27-12.08.44-18.12.52-.26,2.22-.51,4.44-.77,6.66,4.7-.07,9.41-.21,14.11-.4,1.24-.05,1.77.62,1.6,2.03-.43,3.52-.86,7.04-1.29,10.54-.17,1.39-.86,2.11-2.09,2.17-4.68.22-9.36.38-14.04.48-.23,1.96-.45,3.91-.68,5.86,5.98-.14,11.95-.38,17.93-.71,1.2-.07,1.71.6,1.54,2-.43,3.44-.85,6.87-1.28,10.3Z" fill="#78909c"/><path d="M920.49,500.38c-3.83,17.48-7.61,34.71-11.33,51.7-.24,1.15-.92,1.83-2.05,2.05-4.61.9-9.21,1.76-13.82,2.56-.97.17-1.53-.18-1.68-1.05-1.14-6.01-2.29-12.08-3.44-18.21-2.82,6.53-5.63,13.02-8.42,19.48-.44,1.02-1.1,1.56-1.98,1.6-4.37.25-8.73.45-13.1.6-1.05.03-1.55-.5-1.5-1.59.66-17.06,1.34-34.42,2.03-52.09.18-1.45.91-2.2,2.18-2.27,3.82-.2,7.65-.43,11.47-.7,1.2-.09,1.76.54,1.68,1.86-.59,8.51-1.18,16.95-1.76,25.32,2.24-6.79,4.49-13.62,6.76-20.48.39-1.11,1.08-1.71,2.08-1.8,3.18-.29,6.36-.6,9.53-.94,1.05-.11,1.61.36,1.67,1.42.36,6.54.72,13.03,1.07,19.48,1.78-8.53,3.58-17.11,5.39-25.76.29-1.39,1.07-2.12,2.33-2.19,3.82-.24,7.64-.52,11.46-.84,1.16-.11,1.66.42,1.48,1.61l-.04.24Z" fill="#78909c"/><path d="M964.82,499.54c-.09.54-.31,1.03-.66,1.45-3.28,4.04-6.55,8.06-9.81,12.05-.46.57-.96.91-1.51,1.03-.07.01-1.44-.59-4.11-1.86-2.68-1.27-5.29-1.68-7.83-1.2-1.45.27-2.24.81-2.37,1.61-.08.49.86.99,2.81,1.46,6.86,1.73,11.14,2.93,12.84,3.85,4.34,2.37,6.06,6.16,5.16,11.47-1.03,6.08-4,11.07-8.92,14.92-3.96,3.1-8.96,5.32-15,6.54-3.53.72-7,.56-10.42-.49-3.62-1.14-6.24-2.99-7.84-5.5-.24-.35-.33-.77-.26-1.25.08-.53.3-1,.66-1.41,3.14-3.69,6.28-7.39,9.44-11.12.45-.53.97-.84,1.56-.95.12-.02,1.55.63,4.31,1.91,2.75,1.27,5.12,1.7,7.12,1.29,1.74-.35,2.69-1.01,2.85-1.97.1-.61-.83-1.08-2.78-1.43-1.79-.23-4.44-.68-7.95-1.37-8.01-1.97-11.43-7-10.24-14.82.77-5.06,3.91-9.73,9.44-14.09,4.9-3.85,9.83-6.22,14.75-7.14,3.63-.68,7.19-.51,10.68.49,3.68,1.03,6.32,2.78,7.91,5.29.22.35.28.76.21,1.22Z" fill="#78909c"/><path d="M691.44,578.56c104.49,20.73,212.86,11.01,318.9-27.01" fill="none" stroke="#78909c" stroke-miterlimit="10" stroke-width="10"/><path d="M689.95,606.77c103.28,19.01,210.49,8.34,315.42-29.94" fill="none" stroke="#78909c" stroke-miterlimit="10" stroke-width="10"/><path d="M688.14,634.21c51.84,8.85,104.36,10.26,156.73,4.62" fill="none" stroke="#78909c" stroke-miterlimit="10" stroke-width="10"/><path d="M686.73,661.02c51.24,8.05,103.18,8.85,154.98,2.78" fill="none" stroke="#78909c" stroke-miterlimit="10" stroke-width="10"/><path d="M685.36,687.16c50.66,7.29,102.02,7.51,153.27,1.03" fill="none" stroke="#78909c" stroke-miterlimit="10" stroke-width="10"/><path d="M684.02,712.66c50.08,6.56,100.88,6.23,151.6-.65" fill="none" stroke="#78909c" stroke-miterlimit="10" stroke-width="10"/><path d="M682.71,737.54c49.52,5.86,99.78,5,149.96-2.24" fill="none" stroke="#78909c" stroke-miterlimit="10" stroke-width="10"/><path d="M681.43,761.82c48.97,5.2,98.69,3.83,148.36-3.76" fill="none" stroke="#78909c" stroke-miterlimit="10" stroke-width="10"/><path d="M680.19,785.53c48.44,4.56,97.63,2.72,146.79-5.21" fill="none" stroke="#78909c" stroke-miterlimit="10" stroke-width="10"/><path d="M678.97,808.68c47.91,3.95,96.59,1.65,145.25-6.59" fill="none" stroke="#78909c" stroke-miterlimit="10" stroke-width="10"/><path d="M965.78,761.49c-42.59,17.2-85.26,29.9-127.54,38.06,6.86-51.34,14.08-105.44,21.7-162.53,45.35-6.05,91.09-17.42,136.71-34.05-10.82,55.56-21.1,108.33-30.87,158.52Z" fill="#b0bec5" stroke="#78909c" stroke-miterlimit="10" stroke-width="10"/><path d="M946.74,859.27c-90.25,38.63-182.02,57.53-269.85,55.51,1.47-26.94,2.98-54.68,4.53-83.25,91.41,5.9,186.7-10.98,280.32-49.28-5.13,26.36-10.13,52.02-15,77.02Z" fill="#b0bec5" stroke="#78909c" stroke-miterlimit="10" stroke-width="10"/><path d="M648.35,936.23c-108.39,40.89-226.88,54.18-345.74,36.56-19.89-129.98-42.91-280.33-69.83-456.26,149.16,21.83,297.72-3.99,435.11-75.18-7.59,192.31-14.02,355.17-19.53,494.88Z" fill="#fff" stroke="#263238" stroke-linecap="round" stroke-linejoin="round" stroke-width="20"/><path d="M272.46,556.85c124.1,12.23,247.22-8.58,362.9-61" fill="none" stroke="#78909c" stroke-miterlimit="10" stroke-width="10"/><path d="M276.37,585.24c122.51,12.16,244.05-7.91,358.19-58.71" fill="none" stroke="#78909c" stroke-miterlimit="10" stroke-width="10"/><path d="M307.53,811.24c49.7,5.2,98.91,5.08,147.06-.09" fill="none" stroke="#78909c" stroke-miterlimit="10" stroke-width="10"/><path d="M310.6,833.49c49.13,5.17,97.79,5.13,145.4.15" fill="none" stroke="#78909c" stroke-miterlimit="10" stroke-width="10"/><path d="M313.6,855.23c48.58,5.14,96.69,5.17,143.77.39" fill="none" stroke="#78909c" stroke-miterlimit="10" stroke-width="10"/><path d="M316.53,876.49c48.04,5.1,95.62,5.22,142.18.61" fill="none" stroke="#78909c" stroke-miterlimit="10" stroke-width="10"/><path d="M319.39,897.29c47.51,5.07,94.58,5.26,140.63.82" fill="none" stroke="#78909c" stroke-miterlimit="10" stroke-width="10"/><path d="M322.2,917.62c47,5.04,93.55,5.29,139.11,1.03" fill="none" stroke="#78909c" stroke-miterlimit="10" stroke-width="10"/><path d="M488.88,806.59c47.13-7.48,93.72-19.91,139.22-37.24" fill="none" stroke="#78909c" stroke-miterlimit="10" stroke-width="10"/><path d="M489.89,829.24c46.59-7.23,92.64-19.3,137.59-36.14" fill="none" stroke="#78909c" stroke-miterlimit="10" stroke-width="10"/><path d="M490.88,851.38c46.06-6.99,91.57-18.71,136-35.08" fill="none" stroke="#78909c" stroke-miterlimit="10" stroke-width="10"/><path d="M491.85,873.01c45.54-6.76,90.54-18.14,134.44-34.05" fill="none" stroke="#78909c" stroke-miterlimit="10" stroke-width="10"/><path d="M492.8,894.15c45.03-6.54,89.52-17.59,132.92-33.07" fill="none" stroke="#78909c" stroke-miterlimit="10" stroke-width="10"/><path d="M324.94,937.52c46.49,5.01,92.55,5.33,137.62,1.22" fill="none" stroke="#78909c" stroke-miterlimit="10" stroke-width="10"/><path d="M327.62,956.99c46,4.97,91.57,5.36,136.16,1.41" fill="none" stroke="#78909c" stroke-miterlimit="10" stroke-width="10"/><path d="M624.98,746.45c-100.68,38.35-208.04,53.07-316.31,42.46-7.5-55.24-15.43-113.67-23.83-175.56,117.86,11,234.73-7.86,344.68-55.12-1.61,66.53-3.12,129.16-4.55,188.22Z" fill="#b0bec5" stroke="#78909c" stroke-miterlimit="10" stroke-width="10"/><path d="M621.66,883.93c-40.58,14-82.12,24.15-124.17,30.35.58,13.54,1.15,26.89,1.71,40.05,41.14-5.82,81.77-15.39,121.45-28.65.33-13.71.67-27.62,1.01-41.75Z" fill="#b0bec5" stroke="#78909c" stroke-miterlimit="10" stroke-width="10"/><path d="M1042.46,706.45c-13.45,16.52-35.29,23.97-55.78,18.12-9.24-2.64-18.97-7.4-27.4-15.75-25-24.77-20.48-63.2-8.99-86.39,2.74-5.54,21.4-43.18,57.86-42.53,15.95.29,31.2,7.83,42.59,20.32,7.72,8.46,12.23,19.32,13.38,30.71,2.97,29.55-4.61,54.57-21.66,75.51Z" fill="#90a4ae" stroke="#263238" stroke-linecap="round" stroke-linejoin="round" stroke-width="20"/><path d="M218.46,793.3c14.54,17.86,38.15,25.91,60.29,19.59,9.99-2.85,20.51-8,29.61-17.02,27.02-26.77,22.13-68.31,9.72-93.37-2.97-5.98-23.13-46.67-62.54-45.96-17.24.31-33.72,8.47-46.04,21.96-8.35,9.14-13.22,20.88-14.46,33.2-3.2,31.94,4.98,58.98,23.41,81.61Z" fill="#90a4ae" stroke="#263238" stroke-linecap="round" stroke-linejoin="round" stroke-width="20"/></svg>