<?xml version="1.0" encoding="UTF-8"?>
<!-- Generated by Pixelmator Pro 3.6.14 -->
<svg width="256" height="256" viewBox="0 0 256 256" xmlns="http://www.w3.org/2000/svg">
  <defs>
    <linearGradient id='night-sky' x2='0' y2='1'>
      <stop offset='.1' stop-color='#020111'/>
      <stop offset='1' stop-color='#3a3a52'/>
    </linearGradient>
  </defs>
  <style>
    #sky { fill: #d9fcff; stroke: #000000; }
    #building { fill: #fdfdfd; stroke: #000000; }
    #window-left { fill: #666666; stroke: #000000; }
    #window-middle { fill: #666666; stroke: #000000; }
    #window-right { fill: #666666; stroke: #000000; }
    @media (prefers-color-scheme: dark) {
      #sky { fill: url(#night-sky); stroke: #cccccc; }
      #building { fill: #1f1c1a; stroke: #cccccc; }
      #window-left { fill: #666666; stroke: #cccccc; }
      #window-middle { fill: #666666; stroke: #cccccc; }
      #window-right { fill: #666666; stroke: #cccccc; }
    }
  </style>
  <path id="sky" fill-rule="evenodd" stroke-width="3" stroke-linecap="round" stroke-linejoin="round" d="M 245 128 C 245 63.38269 192.61731 11 128 11 C 63.382683 11 11 63.38269 11 128 C 11 192.61731 63.382683 245 128 245 C 192.61731 245 245 192.61731 245 128 Z"/>
  <path id="antenna" fill="#fdfdfd" fill-rule="evenodd" stroke="#929292" stroke-width="5" stroke-linecap="round" stroke-linejoin="round" d="M 128 151 L 128 114"/>
  <path id="building" fill-rule="evenodd" stroke-width="3" stroke-linecap="round" stroke-linejoin="round" d="M 213 208.399414 L 213 149 L 43 149 L 43 208.399414 C 64.326584 230.938538 94.521179 245 128 245 C 161.478821 245 191.673416 230.938538 213 208.399414 Z"/>
  <path id="window-middle" fill-rule="evenodd" stroke-width="2" stroke-linecap="round" stroke-linejoin="round" d="M 113 221 L 142 221 L 142 181 L 113 181 Z"/>
  <path id="window-right" fill-rule="evenodd" stroke-width="2" stroke-linecap="round" stroke-linejoin="round" d="M 160 221 L 189 221 L 189 181 L 160 181 Z"/>
  <path id="window-left" fill-rule="evenodd" stroke-width="2" stroke-linecap="round" stroke-linejoin="round" d="M 66 221 L 95 221 L 95 181 L 66 181 Z"/>
  <g id="rss">
    <path id="middle-line" fill="none" stroke="#ff9400" stroke-width="10.875001" stroke-linecap="round" stroke-linejoin="round" d="M 123 73.0625 C 150.027435 73.0625 171.9375 94.972565 171.9375 122"/>
    <path id="outer-line" fill="none" stroke="#ff9400" stroke-width="10.875001" stroke-linecap="round" stroke-linejoin="round" d="M 123 35 C 171.048782 35 210 73.951218 210 122"/>
    <path id="dot" fill="#ff9400" stroke="#ff9400" stroke-width="10.875001" stroke-linecap="round" stroke-linejoin="round" d="M 133.875 116.5625 C 133.875 119.565552 131.440552 122 128.4375 122 C 125.434448 122 123 119.565552 123 116.5625 C 123 113.559448 125.434448 111.125 128.4375 111.125 C 131.440552 111.125 133.875 113.559448 133.875 116.5625 Z"/>
  </g>
</svg>